<?xml version="1.0" encoding="utf-8"?>
<!-- Generator: Adobe Illustrator 26.2.1, SVG Export Plug-In . SVG Version: 6.00 Build 0)  -->
<svg version="1.1" id="Layer_1" xmlns="http://www.w3.org/2000/svg" xmlns:xlink="http://www.w3.org/1999/xlink" x="0px" y="0px"
	 viewBox="0 0 150 1000" style="enable-background:new 0 0 150 1000;" xml:space="preserve">
<style type="text/css">
	.st0{fill:none;stroke:#828282;stroke-miterlimit:10;}
	.st1{fill:none;stroke:#2F80ED;stroke-miterlimit:10;}
	.st2{fill:none;stroke:#2F80ED;stroke-width:1.5;}
	.st3{fill:none;stroke:#828282;stroke-width:1.5;}
	.st4{fill:#828282;}
	.st5{fill:#2F80ED;}
	.st6{fill:none;stroke:#2F80ED;stroke-width:1.5;stroke-miterlimit:10;}
	.st7{fill:none;stroke:#828282;stroke-width:1.5;stroke-miterlimit:10;}
	.st8{fill:none;stroke:#828282;stroke-linecap:round;stroke-linejoin:round;stroke-miterlimit:10;}
	.st9{fill:none;stroke:#2F80ED;stroke-linecap:round;stroke-linejoin:round;stroke-miterlimit:10;}
</style>
<g>
	<path class="st0" d="M3,13.4c0,0,7.1-7.1,9.2-9.2s4.9-3.5,7.8-0.7s1.4,5.7-0.7,7.8s-7.1,7.1-9.2,9.2c-4.2,4.2-9.9-1.4-5.7-5.7
		C7.2,12,12.2,7,13.6,5.6s3.5-0.7,4.2,0c0.7,0.7,1.4,2.8,0,4.2S8.6,19,8.6,19"/>
</g>
<g>
	<path class="st0" d="M103,13.4c0,0,7.1-7.1,9.2-9.2c2.1-2.1,4.9-3.5,7.8-0.7c2.8,2.8,1.4,5.7-0.7,7.8c-2.1,2.1-7.1,7.1-9.2,9.2
		c-4.2,4.2-9.9-1.4-5.7-5.7c2.8-2.8,7.8-7.8,9.2-9.2s3.5-0.7,4.2,0s1.4,2.8,0,4.2c-1.4,1.4-9.2,9.2-9.2,9.2"/>
	<path class="st1" d="M103,13.4c0,0,7.1-7.1,9.2-9.2c2.1-2.1,4.9-3.5,7.8-0.7c2.8,2.8,1.4,5.7-0.7,7.8c-2.1,2.1-7.1,7.1-9.2,9.2
		c-4.2,4.2-9.9-1.4-5.7-5.7c2.8-2.8,7.8-7.8,9.2-9.2s3.5-0.7,4.2,0s1.4,2.8,0,4.2c-1.4,1.4-9.2,9.2-9.2,9.2"/>
</g>
<g>
	<g>
		<circle class="st1" cx="111.7" cy="111.6" r="9"/>
		<line class="st1" x1="108" y1="115.3" x2="115.4" y2="107.9"/>
		<line class="st1" x1="115.4" y1="115.3" x2="108" y2="107.9"/>
	</g>
	<g>
		<circle class="st2" cx="111.7" cy="111.6" r="9"/>
		<line class="st2" x1="108" y1="115.3" x2="115.4" y2="107.9"/>
		<line class="st2" x1="115.4" y1="115.3" x2="108" y2="107.9"/>
	</g>
</g>
<g>
	<g>
		<circle class="st1" cx="11.7" cy="111.6" r="9"/>
		<line class="st1" x1="8" y1="115.3" x2="15.4" y2="107.9"/>
		<line class="st1" x1="15.4" y1="115.3" x2="8" y2="107.9"/>
	</g>
	<g>
		<circle class="st3" cx="11.7" cy="111.6" r="9"/>
		<line class="st3" x1="8" y1="115.3" x2="15.4" y2="107.9"/>
		<line class="st3" x1="15.4" y1="115.3" x2="8" y2="107.9"/>
	</g>
</g>
<path class="st4" d="M14.5,201.9h-8c-1.1,0-2,0.9-2,2l0,16c0,1.1,0.9,2,2,2h12c1.1,0,2-0.9,2-2v-12L14.5,201.9z M16.5,217.9h-8v-2h8
	V217.9z M16.5,213.9h-8v-2h8V213.9z M13.5,208.9v-5.5l5.5,5.5H13.5z"/>
<path class="st5" d="M114.5,201.9h-8c-1.1,0-2,0.9-2,2l0,16c0,1.1,0.9,2,2,2h12c1.1,0,2-0.9,2-2v-12L114.5,201.9z M116.5,217.9h-8
	v-2h8V217.9z M116.5,213.9h-8v-2h8V213.9z M113.5,208.9v-5.5l5.5,5.5H113.5z"/>
<path class="st5" d="M103,317.2v3.8h3.8l11.1-11.1l-3.8-3.8L103,317.2z M120.7,307c0.4-0.4,0.4-1,0-1.4l-2.3-2.3
	c-0.4-0.4-1-0.4-1.4,0l-1.8,1.8l3.8,3.8L120.7,307z"/>
<line class="st1" x1="100" y1="323.4" x2="124" y2="323.4"/>
<path class="st4" d="M3,317.2v3.8h3.8l11.1-11.1l-3.8-3.8L3,317.2z M20.7,307c0.4-0.4,0.4-1,0-1.4l-2.3-2.3c-0.4-0.4-1-0.4-1.4,0
	l-1.8,1.8l3.8,3.8L20.7,307z"/>
<line class="st0" x1="0" y1="323.4" x2="24" y2="323.4"/>
<g>
	<path class="st5" d="M121,419v-14c0-1.1-0.9-2-2-2h-14c-1.1,0-2,0.9-2,2v14c0,1.1,0.9,2,2,2h14C120.1,421,121,420.1,121,419z
		 M108.5,413.5l2.5,3l3.5-4.5l4.5,6h-14L108.5,413.5z"/>
</g>
<g>
	<path class="st5" d="M21,419v-14c0-1.1-0.9-2-2-2H5c-1.1,0-2,0.9-2,2v14c0,1.1,0.9,2,2,2h14C20.1,421,21,420.1,21,419z M8.5,413.5
		l2.5,3l3.5-4.5l4.5,6H5L8.5,413.5z"/>
	<path class="st4" d="M21,419v-14c0-1.1-0.9-2-2-2H5c-1.1,0-2,0.9-2,2v14c0,1.1,0.9,2,2,2h14C20.1,421,21,420.1,21,419z M8.5,413.5
		l2.5,3l3.5-4.5l4.5,6H5L8.5,413.5z"/>
</g>
<g id="Layer_1_1_">
	<path class="st4" d="M17.9,519H6.1v-14h8.6v-2H6.1c-1.1,0-2,0.9-2,2v14c0,1.1,0.9,2,2,2h11.7c1.1,0,2-0.9,2-2v-10.7h-2V519H17.9z"
		/>
</g>
<g id="Layer_2_1_">
	<polyline class="st4" points="16.9,503.9 9.3,514.5 8.8,516.7 10.9,515.6 18.6,505.1 	"/>
</g>
<g id="Layer_3">
	<polyline class="st4" points="18.8,501.3 17.7,502.7 19.4,503.9 20.4,502.5 	"/>
</g>
<g id="Layer_1_2_">
	<path class="st5" d="M117.9,519h-11.8v-14h8.6v-2h-8.6c-1.1,0-2,0.9-2,2v14c0,1.1,0.9,2,2,2h11.7c1.1,0,2-0.9,2-2v-10.7h-2
		L117.9,519L117.9,519z"/>
</g>
<g id="Layer_2_2_">
	<polyline class="st5" points="116.9,503.9 109.3,514.5 108.8,516.7 110.9,515.6 118.6,505.1 	"/>
</g>
<g id="Layer_3_1_">
	<polyline class="st5" points="118.8,501.3 117.7,502.7 119.4,503.9 120.4,502.5 	"/>
</g>
<circle class="st6" cx="112" cy="912" r="9"/>
<line class="st6" x1="112" y1="917.3" x2="112" y2="906.8"/>
<line class="st6" x1="117.2" y1="912" x2="106.8" y2="912"/>
<circle class="st7" cx="12" cy="912" r="9"/>
<line class="st7" x1="12" y1="917.3" x2="12" y2="906.8"/>
<line class="st7" x1="17.2" y1="912" x2="6.8" y2="912"/>
<polygon class="st8" points="1,623 23,612 1,601 4,610 16,612 4,614 "/>
<g>
	<polygon class="st8" points="101,623 123,612 101,601 104,610 116,612 104,614 	"/>
	<polygon class="st9" points="101,623 123,612 101,601 104,610 116,612 104,614 	"/>
</g>
<path class="st4" d="M9,716.2L4.8,712l-1.4,1.4L9,719l12-12l-1.4-1.4L9,716.2z"/>
<g>
	<polygon class="st4" points="109,716.2 104.8,712 103.4,713.4 109,719 121,707 119.6,705.6 	"/>
	<polygon class="st5" points="109,716.2 104.8,712 103.4,713.4 109,719 121,707 119.6,705.6 	"/>
</g>
<path class="st5" d="M118,807l-1.4-1.4l-6.3,6.3l1.4,1.4L118,807z M122.2,805.6l-10.5,10.6l-4.2-4.2l-1.4,1.4l5.6,5.6l12-12
	L122.2,805.6z M100.4,813.4l5.6,5.6l1.4-1.4l-5.6-5.6L100.4,813.4z"/>
<g>
	<path class="st5" d="M18,807l-1.4-1.4l-6.3,6.3l1.4,1.4L18,807z M22.2,805.6l-10.5,10.6L7.5,812l-1.4,1.4l5.6,5.6l12-12L22.2,805.6
		z M0.4,813.4L6,819l1.4-1.4L1.8,812L0.4,813.4z"/>
	<path class="st4" d="M18,807l-1.4-1.4l-6.3,6.3l1.4,1.4L18,807z M22.2,805.6l-10.5,10.6L7.5,812l-1.4,1.4l5.6,5.6l12-12L22.2,805.6
		z M0.4,813.4L6,819l1.4-1.4L1.8,812L0.4,813.4z"/>
</g>
</svg>
